<?xml version="1.0" standalone="no"?><!DOCTYPE svg PUBLIC "-//W3C//DTD SVG 1.1//EN" "http://www.w3.org/Graphics/SVG/1.1/DTD/svg11.dtd"><svg t="1703145818727" class="icon" viewBox="0 0 1024 1024" version="1.1" xmlns="http://www.w3.org/2000/svg" p-id="16353" xmlns:xlink="http://www.w3.org/1999/xlink" width="32" fill="currentColor" height="32"><path d="M309.666909 142.941091a42.589091 42.589091 0 0 1-4.654545 60.043636l-61.905455 53.061818h375.435636c169.704727 0 313.204364 138.007273 319.767273 307.665455 7.028364 179.246545-140.474182 332.194909-319.767273 332.194909h-362.58909a42.589091 42.589091 0 1 1 0-85.178182h362.58909c131.025455 0 239.802182-112.872727 234.682182-243.712-4.840727-123.950545-110.731636-225.745455-234.682182-225.745454h-387.723636l76.613818 76.613818a42.589091 42.589091 0 1 1-60.229818 60.229818L97.885091 328.797091a42.589091 42.589091 0 0 1 2.420364-62.464l149.317818-128a42.589091 42.589091 0 0 1 60.043636 4.654545z" p-id="16354"></path></svg>