<?xml version="1.0" standalone="no"?><!DOCTYPE svg PUBLIC "-//W3C//DTD SVG 1.1//EN" "http://www.w3.org/Graphics/SVG/1.1/DTD/svg11.dtd"><svg t="1704373605487" class="icon" viewBox="0 0 1024 1024" version="1.1" xmlns="http://www.w3.org/2000/svg" p-id="9983" xmlns:xlink="http://www.w3.org/1999/xlink" width="32" height="32"><path d="M536.374427 452.465765a63.891022 63.891022 0 1 0 33.978407 82.187087 63.600609 63.600609 0 0 0-33.978407-82.187087z m-35.430476 88.866603a31.945511 31.945511 0 1 1 40.077096-18.586479 32.235925 32.235925 0 0 1-40.077096 18.296066z" fill="#d81e06" p-id="9984"></path><path d="M584.00228 333.97696a191.382653 191.382653 0 1 0 105.129773 248.303745 191.673067 191.673067 0 0 0-105.129773-248.303745zM466.384716 630.198972a127.782044 127.782044 0 1 1 166.116658-71.151366A128.072458 128.072458 0 0 1 466.384716 630.198972z" fill="#d81e06" p-id="9985"></path><path d="M749.828524 606.675459a15.972756 15.972756 0 1 0-29.041374-11.906963 222.456923 222.456923 0 0 1-119.65046 122.264183 16.263169 16.263169 0 0 0-8.131584 20.90979 15.972756 15.972756 0 0 0 20.909789 8.421998 255.564089 255.564089 0 0 0 135.913629-139.398594z m109.776393 26.718064a15.682342 15.682342 0 0 0-20.909789 8.712412 348.496485 348.496485 0 0 1-187.897688 192.253894 16.263169 16.263169 0 0 0-8.131585 20.90979 15.972756 15.972756 0 0 0 20.909789 8.421998 380.73241 380.73241 0 0 0 203.289616-209.097891 15.682342 15.682342 0 0 0-8.712412-20.619375z" fill="#d81e06" p-id="9986"></path><path d="M800.070101 609.87001a15.682342 15.682342 0 0 0-20.619376 9.002826 286.928773 286.928773 0 0 1-153.628867 157.113832 15.972756 15.972756 0 0 0-8.421998 20.909789 16.263169 16.263169 0 0 0 20.909789 8.712412 317.422215 317.422215 0 0 0 169.892036-174.248242 15.682342 15.682342 0 0 0-9.002826-20.619375zM433.27755 285.187452a16.553583 16.553583 0 0 0-8.712412-8.421999 16.843997 16.843997 0 0 0-12.487791 0 254.692848 254.692848 0 0 0-135.913629 139.398594 15.972756 15.972756 0 0 0 17.134411 22.071445 15.972756 15.972756 0 0 0 12.48779-10.164481 223.03775 223.03775 0 0 1 119.65046-122.554598 14.811101 14.811101 0 0 0 8.421999-8.712412 16.263169 16.263169 0 0 0 0-12.197377z m-50.241576-116.165495a16.263169 16.263169 0 0 0-21.200203-8.421999 382.474892 382.474892 0 0 0-203.289617 209.097891 16.843997 16.843997 0 0 0 2.32331 15.972756 15.972756 15.972756 0 0 0 14.811101 5.808275 16.263169 16.263169 0 0 0 12.487791-9.874067 350.529381 350.529381 0 0 1 186.445619-192.834722 16.263169 16.263169 0 0 0 8.421999-20.909789z" fill="#d81e06" p-id="9987"></path><path d="M399.589557 247.433666a15.391928 15.391928 0 0 0 10.16448-12.778204 15.972756 15.972756 0 0 0-6.389102-15.101515 15.682342 15.682342 0 0 0-16.263169 0 319.455111 319.455111 0 0 0-169.892037 174.248243 15.972756 15.972756 0 0 0 29.041374 11.906963 286.638359 286.638359 0 0 1 153.338454-158.275487z" fill="#d81e06" p-id="9988"></path><path d="M76.939894 678.698066s464.66198 459.434533 868.917903-13.359032l-106.001014 209.097891-281.410912 104.258532-190.511412-22.942685-139.689008-60.406058z" fill="#d81e06" p-id="9989"></path><path d="M512.850914 58.083909a453.04543 453.04543 0 0 1 0 905.800447 453.335844 453.335844 0 0 1-416.453299-274.150568A453.04543 453.04543 0 0 1 512.850914 58.083909m0-58.082747a511.709005 511.709005 0 1 0 189.640171 36.882544A510.54735 510.54735 0 0 0 512.850914 0.001162z" fill="#d81e06" p-id="9990"></path></svg>